<?xml version="1.0" standalone="no"?>
<!DOCTYPE svg PUBLIC "-//W3C//DTD SVG 20010904//EN"
 "http://www.w3.org/TR/2001/REC-SVG-20010904/DTD/svg10.dtd">
<svg version="1.0" xmlns="http://www.w3.org/2000/svg"
 width="300.000000pt" height="66.000000pt" viewBox="0 0 300.000000 66.000000"
 preserveAspectRatio="xMidYMid meet">
<metadata>
Created by potrace 1.10, written by Peter Selinger 2001-2011
</metadata>
<g transform="translate(0.000000,66.000000) scale(0.100000,-0.100000)"
fill="#000000" stroke="none">
<path d="M745 649 c-4 -6 -13 -8 -20 -5 -8 3 -19 -2 -25 -10 -10 -12 -8 -14
14 -14 34 0 69 18 61 31 -8 12 -22 12 -30 -2z"/>
<path d="M1168 626 c-5 -24 -2 -26 27 -26 38 0 67 26 41 36 -9 3 -23 1 -30 -5
-11 -10 -16 -8 -24 5 -8 14 -10 13 -14 -10z"/>
<path d="M975 594 c-22 -9 -57 -13 -78 -11 -26 4 -37 2 -34 -6 7 -21 167 3
167 25 0 11 -7 10 -55 -8z"/>
<path d="M763 558 c3 -24 15 -92 26 -152 12 -60 21 -124 21 -143 0 -18 5 -33
10 -33 16 0 12 90 -10 195 -11 53 -18 101 -15 105 7 12 -15 70 -27 70 -7 0 -8
-16 -5 -42z"/>
<path d="M1575 590 c-4 -6 -14 -9 -22 -8 -9 2 -18 -3 -21 -10 -3 -10 6 -13 34
-10 27 2 40 8 42 21 4 18 -22 24 -33 7z"/>
<path d="M660 568 c0 -13 7 -54 16 -93 41 -189 43 -203 25 -218 -9 -8 -42 -24
-74 -37 -32 -12 -79 -40 -105 -61 -55 -46 -82 -50 -82 -14 0 31 48 125 64 125
25 1 161 77 161 90 0 16 -98 48 -151 49 -43 1 -69 -29 -60 -70 5 -27 4 -30 -9
-19 -8 7 -15 19 -15 26 0 24 -24 15 -42 -16 -11 -19 -28 -33 -45 -36 -20 -4
-35 -17 -48 -42 -27 -50 -105 -106 -200 -143 -91 -36 -110 -49 -75 -49 73 0
243 90 268 142 l12 27 25 -25 c28 -28 47 -30 66 -8 11 14 10 21 -4 46 -16 28
-16 30 5 58 l21 30 18 -29 c10 -16 23 -31 29 -33 8 -2 6 -16 -8 -43 -34 -67
-33 -122 2 -131 19 -4 37 4 80 40 61 49 95 61 76 27 -5 -11 -10 -36 -10 -56 0
-113 62 -101 234 44 95 80 98 82 113 62 23 -33 45 -27 41 11 -3 31 0 34 58 58
73 31 84 37 84 55 0 30 -226 48 -254 20 -20 -20 -9 -50 27 -74 l27 -17 -86
-70 c-145 -117 -155 -124 -190 -124 -41 0 -49 20 -31 80 10 36 18 45 43 52 72
19 81 61 45 216 -12 51 -19 97 -15 103 7 12 -15 69 -27 69 -5 0 -9 -10 -9 -22z
m-95 -202 l50 -13 -58 -28 c-67 -31 -87 -28 -87 14 0 43 18 48 95 27z m431
-36 c35 0 64 -3 64 -7 0 -5 -24 -17 -54 -29 l-53 -20 -32 26 c-30 26 -32 46
-3 35 7 -3 43 -5 78 -5z"/>
<path d="M1120 555 c0 -13 14 -88 30 -167 l31 -142 -23 -18 c-13 -10 -29 -18
-36 -18 -24 0 -107 -48 -136 -79 -32 -33 -76 -42 -76 -16 0 9 7 32 15 52 18
44 12 56 -8 16 -25 -47 -25 -84 -1 -107 18 -19 37 -11 93 39 20 19 62 43 92
55 100 40 108 59 78 197 -11 54 -22 114 -23 133 -3 33 -21 80 -31 80 -3 0 -5
-11 -5 -25z"/>
<path d="M1225 567 c-4 -10 2 -74 14 -142 11 -68 21 -136 21 -150 0 -15 4 -24
10 -20 14 9 13 49 -6 168 -21 137 -29 167 -39 144z"/>
<path d="M524 530 c-45 -21 -85 -43 -89 -50 -4 -7 -4 -11 1 -9 139 63 207 101
177 98 -5 0 -45 -18 -89 -39z"/>
<path d="M1421 522 c-101 -51 -102 -68 -1 -20 44 21 80 43 80 48 0 12 8 15
-79 -28z"/>
<path d="M995 518 c-79 -32 -98 -42 -103 -56 -3 -11 2 -10 20 2 13 9 50 25 81
35 31 11 65 24 74 30 32 19 -16 11 -72 -11z"/>
<path d="M1540 503 c0 -16 7 -71 16 -123 8 -52 15 -114 15 -137 1 -43 12 -56
23 -28 3 9 -1 67 -9 130 -8 63 -14 118 -13 122 3 15 -14 63 -23 63 -5 0 -9
-12 -9 -27z"/>
<path d="M600 479 c0 -5 -4 -7 -10 -4 -5 3 -10 -1 -10 -9 0 -9 8 -16 18 -16
24 0 32 8 25 26 -6 16 -23 19 -23 3z"/>
<path d="M1050 460 c0 -6 -5 -8 -11 -4 -7 4 -10 1 -7 -7 6 -18 43 -18 43 0 0
8 -6 16 -12 19 -7 2 -13 -1 -13 -8z"/>
<path d="M1437 443 c-14 -13 -6 -33 13 -33 13 0 20 7 20 20 0 19 -20 27 -33
13z"/>
<path d="M2907 425 c-4 -8 5 -46 18 -84 13 -38 21 -72 17 -75 -9 -10 -20 -7
-37 11 -16 16 -18 16 -27 0 -11 -20 -44 -23 -51 -4 -3 9 -9 7 -24 -5 -26 -23
-64 -23 -70 0 -4 17 -7 17 -72 1 -345 -88 -789 -101 -933 -28 -21 11 -41 19
-47 19 -5 0 -22 -21 -39 -48 -36 -59 -112 -105 -259 -158 -119 -42 -122 -55
-8 -29 96 21 203 75 247 123 33 37 35 37 66 25 27 -11 32 -10 40 2 7 14 18 14
103 -1 171 -30 495 -9 779 51 41 8 83 18 93 21 11 3 17 0 17 -9 0 -22 22 -26
61 -13 25 9 40 9 52 2 12 -8 21 -6 35 8 13 11 22 14 27 7 10 -17 52 -13 59 5
10 27 7 73 -9 111 -8 19 -15 44 -15 54 0 23 -16 33 -23 14z"/>
<path d="M1350 416 c0 -18 16 -29 30 -21 13 8 1 35 -16 35 -8 0 -14 -6 -14
-14z"/>
<path d="M1630 400 c0 -15 5 -20 18 -18 9 2 17 10 17 18 0 8 -8 16 -17 18 -13
2 -18 -3 -18 -18z"/>
<path d="M300 380 c0 -5 -7 -7 -15 -4 -8 4 -15 2 -15 -4 0 -5 9 -12 20 -15 11
-3 20 -4 20 -2 0 2 3 10 6 19 3 9 1 16 -5 16 -6 0 -11 -4 -11 -10z"/>
<path d="M2793 356 c2 -6 12 -11 22 -11 10 0 20 5 22 11 2 7 -7 12 -22 12 -15
0 -24 -5 -22 -12z"/>
<path d="M1470 347 c0 -8 9 -40 20 -72 24 -70 24 -65 1 -65 -26 0 -36 16 -51
78 -18 78 -33 77 -25 -2 8 -71 -2 -96 -36 -96 -26 0 -37 27 -31 73 8 60 -19
43 -42 -26 -24 -76 -55 -75 -56 1 -1 22 -2 24 -10 11 -12 -20 4 -82 26 -100
21 -17 38 5 50 64 l8 42 4 -35 c2 -19 8 -41 14 -47 17 -20 56 -15 74 10 17 23
18 23 37 4 40 -40 86 10 66 74 -6 19 -12 44 -14 56 -2 12 -6 27 -10 32 -9 15
-25 14 -25 -2z"/>
<path d="M1660 330 c0 -5 -7 -7 -16 -3 -12 4 -15 2 -12 -8 5 -16 30 -19 40 -4
11 14 10 25 -2 25 -5 0 -10 -4 -10 -10z"/>
<path d="M712 183 c4 -21 33 -25 33 -3 0 8 -8 16 -18 18 -14 3 -18 -1 -15 -15z"/>
<path d="M2805 162 c-24 -5 -88 -52 -81 -59 3 -3 18 4 34 16 17 12 37 21 45
21 9 0 19 5 22 11 9 14 4 16 -20 11z"/>
<path d="M2904 155 c-3 -8 -3 -19 1 -25 11 -17 35 -11 35 9 0 23 -29 36 -36
16z"/>
<path d="M1708 132 c-57 -23 -105 -52 -86 -52 12 0 153 61 162 70 15 15 -2 11
-76 -18z"/>
<path d="M1278 109 c-43 -17 -78 -35 -78 -39 0 -5 30 2 67 16 72 27 103 42
103 49 0 8 -13 5 -92 -26z"/>
<path d="M335 120 c-10 -16 16 -43 28 -31 11 11 2 41 -12 41 -5 0 -13 -5 -16
-10z"/>
<path d="M1118 125 c-3 -4 -4 -15 -1 -26 6 -20 37 -26 48 -9 3 6 -1 10 -9 10
-9 0 -15 5 -13 11 2 13 -16 23 -25 14z"/>
<path d="M275 110 c-10 -16 16 -43 28 -31 11 11 2 41 -12 41 -5 0 -13 -5 -16
-10z"/>
<path d="M2911 89 c-47 -16 -90 -34 -95 -40 -8 -9 -7 -11 4 -7 8 3 45 15 81
27 36 12 75 28 85 36 25 19 23 18 -75 -16z"/>
<path d="M192 78 c-24 -11 -42 -21 -40 -24 7 -6 88 28 88 38 0 4 -1 8 -2 7 -2
0 -23 -10 -46 -21z"/>
<path d="M808 80 c-34 -18 -58 -40 -43 -40 7 0 73 34 95 49 28 19 -11 12 -52
-9z"/>
<path d="M1041 82 c-6 -11 -4 -27 5 -47 l14 -30 -4 32 c-4 22 -1 33 10 37 8 3
12 10 9 16 -9 15 -23 12 -34 -8z"/>
<path d="M1711 86 c-8 -9 -8 -21 -1 -40 12 -33 22 -34 14 -1 -4 15 -2 25 5 25
6 0 11 7 11 15 0 19 -14 19 -29 1z"/>
<path d="M390 65 c-9 -11 -9 -21 -1 -42 l11 -28 -5 28 c-4 20 -1 27 10 27 16
0 20 15 6 24 -5 3 -14 -1 -21 -9z"/>
<path d="M508 45 c5 -27 9 -30 32 -15 13 8 13 10 -2 10 -11 0 -15 5 -12 15 4
9 0 15 -9 15 -10 0 -13 -8 -9 -25z"/>
</g>
</svg>
