<?xml version="1.0" standalone="no"?>
<!DOCTYPE svg PUBLIC "-//W3C//DTD SVG 20010904//EN"
 "http://www.w3.org/TR/2001/REC-SVG-20010904/DTD/svg10.dtd">
<svg version="1.0" xmlns="http://www.w3.org/2000/svg"
 width="300.000000pt" height="404.000000pt" viewBox="0 0 300.000000 404.000000"
 preserveAspectRatio="xMidYMid meet">
<metadata>
Created by potrace 1.10, written by Peter Selinger 2001-2011
</metadata>
<g transform="translate(0.000000,404.000000) scale(0.100000,-0.100000)"
fill="#000000" stroke="none">
<path d="M1725 3138 c19 -12 19 -12 -5 -19 -25 -7 -25 -7 3 -8 16 -1 26 -5 22
-11 -3 -5 3 -10 14 -10 12 0 21 -4 21 -9 0 -6 9 -9 19 -8 14 1 17 5 11 13 -6
6 -8 14 -5 17 3 4 2 5 -1 3 -3 -2 -22 7 -41 20 -20 13 -41 24 -47 24 -6 0 -2
-6 9 -12z"/>
<path d="M584 3129 c-4 -8 0 -9 15 -4 27 8 61 -3 61 -20 0 -8 5 -17 12 -21 7
-4 8 -3 4 4 -4 7 -2 12 3 12 10 0 15 -14 12 -32 -2 -15 96 -8 109 7 10 12 9
15 -6 16 -11 1 -23 1 -27 0 -46 -8 -54 -6 -78 21 -20 20 -36 28 -62 28 -20 0
-39 -5 -43 -11z"/>
<path d="M889 3106 c-3 -3 -19 -6 -37 -8 -39 -3 -43 -18 -4 -18 15 0 41 -4 59
-9 21 -6 35 -5 43 2 10 9 11 9 6 0 -4 -7 -2 -13 3 -13 6 0 11 5 11 12 0 6 8 2
18 -8 9 -11 24 -19 32 -19 8 0 20 -6 26 -14 10 -12 13 -11 23 7 7 12 8 21 4
21 -14 -4 -63 13 -63 21 0 4 -19 10 -43 13 -24 3 -50 9 -58 12 -8 3 -17 3 -20
1z"/>
<path d="M1945 3078 c6 -23 4 -26 -14 -21 -11 3 -18 10 -15 15 7 11 -47 5 -83
-9 -22 -8 -22 -9 -3 -21 16 -10 18 -9 14 3 -9 23 65 7 106 -24 19 -14 39 -25
43 -23 14 4 20 -29 9 -53 -6 -14 -26 -32 -44 -40 l-33 -15 35 4 c90 10 188
-27 225 -86 58 -90 96 -132 106 -116 10 16 35 -5 42 -35 6 -20 5 -21 -7 -4
-51 68 13 -132 75 -234 23 -39 47 -92 53 -119 9 -40 14 -47 26 -40 12 8 12 12
2 18 -11 8 -21 34 -25 72 -1 8 -13 32 -25 53 -26 40 -22 56 21 78 16 9 18 8
12 -11 -5 -15 -3 -21 7 -19 28 3 38 -2 53 -31 19 -36 14 -120 -10 -156 -14
-22 -14 -25 0 -30 19 -8 20 -24 0 -24 -8 0 -15 -7 -15 -15 0 -8 -9 -15 -20
-15 -11 0 -20 -4 -20 -10 0 -21 29 -9 58 24 26 30 30 43 36 124 8 100 -1 133
-50 171 -34 27 -46 26 -83 -5 -20 -17 -31 -21 -31 -12 -1 7 -7 54 -15 103 -8
50 -16 113 -18 140 -4 52 -23 95 -44 95 -24 0 -23 -21 1 -53 29 -38 34 -56 11
-37 -12 10 -15 10 -15 -1 -1 -9 -4 -8 -11 4 -6 9 -15 15 -20 11 -6 -3 -13 3
-16 15 -3 12 -9 21 -14 21 -5 0 -9 5 -9 11 0 11 -10 22 -77 92 -16 17 -19 27
-11 40 8 14 13 16 24 6 8 -6 14 -18 14 -26 0 -8 4 -12 9 -9 10 7 21 -16 22
-47 0 -21 1 -20 11 3 l10 25 11 -22 c10 -24 27 -31 27 -12 0 6 9 8 20 4 15 -5
18 -3 14 8 -3 9 -30 26 -60 39 -31 13 -54 29 -54 38 0 8 -9 21 -20 28 -19 11
-22 9 -35 -22 -10 -23 -21 -34 -33 -33 -25 1 -17 38 10 44 10 3 18 10 18 15 0
6 -6 8 -14 5 -14 -6 -54 29 -48 41 2 4 -1 8 -7 10 -6 2 -8 -3 -5 -12 6 -14 3
-14 -22 -1 -16 8 -35 15 -41 15 -7 0 -13 6 -13 13 0 7 -12 29 -26 48 -24 32
-25 33 -19 7z m117 -105 c19 -17 24 -43 9 -43 -5 0 -19 14 -31 30 -23 33 -9
42 22 13z"/>
<path d="M1604 3068 c3 -7 9 -21 12 -30 4 -10 10 -18 15 -18 5 0 9 -6 9 -13 0
-7 9 -18 20 -24 16 -11 22 -10 38 7 12 13 25 18 35 14 10 -3 17 -2 17 4 0 16
-33 24 -42 10 -6 -10 -11 -9 -19 5 -14 24 -32 22 -19 -3 7 -14 7 -20 0 -20 -9
0 -15 22 -11 44 1 5 -6 5 -16 2 -9 -4 -14 -4 -10 0 8 8 -11 34 -25 34 -5 0 -7
-6 -4 -12z"/>
<path d="M1687 3073 c-14 -14 -6 -23 12 -14 19 11 36 -1 59 -44 6 -11 12 -15
12 -8 0 8 7 8 30 0 17 -6 30 -14 30 -17 0 -4 33 -7 73 -7 55 -1 66 1 47 8 -13
6 -28 15 -31 21 -6 9 -12 8 -23 -1 -13 -11 -19 -11 -33 0 -11 10 -14 10 -9 2
10 -18 2 -16 -34 5 -16 10 -27 22 -23 25 5 6 -7 8 -32 7 -3 -1 -13 6 -21 15
-16 16 -46 20 -57 8z"/>
<path d="M347 3040 c-33 -20 -187 -168 -187 -179 0 -4 -8 -16 -18 -27 -26 -28
-92 -131 -92 -142 0 -6 -4 -12 -9 -14 -5 -1 -13 -16 -17 -32 -6 -26 -5 -27 15
-17 11 7 21 16 21 21 0 10 56 94 78 118 16 17 16 25 -1 16 -9 -6 -9 -4 1 7 6
7 12 21 12 31 0 11 5 15 15 12 8 -4 15 -2 15 3 0 5 18 29 40 52 22 23 40 46
40 52 0 13 30 44 31 32 0 -4 4 2 10 15 5 14 13 20 20 16 7 -4 9 -3 6 3 -4 6 9
17 30 25 20 8 32 17 27 20 -5 3 -22 -2 -37 -12z"/>
<path d="M1082 3030 c-10 -16 -8 -18 14 -15 33 3 37 9 15 22 -14 9 -20 7 -29
-7z"/>
<path d="M918 3015 c61 -28 62 -29 62 -15 0 6 -3 9 -7 8 -5 0 -25 6 -45 15
-21 10 -43 17 -50 17 -7 0 11 -11 40 -25z"/>
<path d="M1133 2985 c15 -14 27 -30 27 -35 0 -6 5 -9 12 -7 7 1 12 -3 13 -10
0 -6 3 -15 8 -19 11 -11 8 -26 -3 -19 -6 4 7 -27 30 -69 22 -42 41 -79 42 -83
2 -4 16 -21 32 -38 22 -23 26 -25 17 -7 -7 12 -8 22 -4 22 4 0 3 4 -3 8 -13 9
-96 173 -91 178 11 11 87 -114 87 -141 0 -7 7 -18 15 -25 8 -6 14 -15 13 -18
-5 -18 14 -81 27 -92 8 -7 12 -16 9 -21 -3 -5 0 -9 5 -9 14 0 14 17 0 25 -5 4
-8 12 -6 18 2 6 -15 56 -38 112 -47 113 -74 166 -75 146 0 -7 -26 14 -58 48
-32 34 -65 61 -73 61 -8 0 -3 -10 14 -25z"/>
<path d="M1579 2983 c-2 -6 -24 -17 -49 -25 -25 -8 -44 -19 -42 -24 4 -14 35
-11 51 4 7 7 20 11 27 8 8 -3 14 -1 14 5 0 6 5 7 10 4 12 -8 13 5 1 24 -5 7
-10 9 -12 4z"/>
<path d="M927 2878 c9 -10 18 -16 20 -14 5 4 79 -59 108 -93 11 -13 29 -33 40
-45 11 -12 20 -26 21 -31 0 -6 5 -21 11 -35 6 -14 23 -54 39 -90 25 -57 28
-77 28 -167 0 -85 2 -100 13 -91 8 6 12 17 9 25 -3 8 -1 11 5 8 6 -4 8 2 5 17
-5 24 -14 85 -21 150 -2 20 -12 54 -21 75 -9 21 -19 46 -20 56 -7 32 -36 80
-85 143 -48 60 -72 79 -96 75 -7 -1 -17 7 -22 18 -6 11 -20 19 -31 18 -18 -1
-18 -2 -3 -19z"/>
<path d="M1886 2885 c-3 -8 -9 -15 -13 -14 -20 3 -41 -2 -59 -16 -18 -14 -18
-14 6 -10 65 12 81 18 90 36 8 15 7 19 -4 19 -7 0 -16 -7 -20 -15z"/>
<path d="M1468 2863 c-10 -2 -18 -11 -18 -18 0 -8 -6 -12 -14 -9 -10 4 -14 -1
-13 -15 2 -24 12 -28 21 -6 3 8 12 15 20 15 7 0 16 9 19 20 3 11 4 19 4 19 -1
-1 -10 -3 -19 -6z"/>
<path d="M1746 2834 c-3 -9 -9 -14 -12 -11 -3 3 -27 -8 -52 -24 -25 -16 -52
-29 -60 -29 -7 0 -10 -4 -7 -10 3 -5 -3 -10 -14 -10 -13 0 -21 -6 -21 -17 0
-10 4 -14 8 -8 8 12 80 54 105 62 9 3 17 10 17 15 0 5 4 7 8 4 12 -7 76 34 67
42 -4 4 -10 1 -13 -7 -3 -10 -6 -10 -12 -1 -5 8 -9 7 -14 -6z"/>
<path d="M1386 2781 c-10 -11 -18 -25 -20 -33 -1 -7 -5 -19 -9 -25 -6 -9 -2
-13 10 -14 11 0 13 -3 5 -6 -6 -2 -10 -9 -7 -14 4 -5 17 -2 31 7 23 16 24 16
18 -2 -6 -17 -5 -17 9 1 28 35 18 72 -11 43 -9 -9 -12 -7 -12 11 0 18 4 22 20
18 12 -3 20 0 20 8 0 9 -8 11 -22 7 -14 -3 -19 -2 -14 6 11 18 1 14 -18 -7z"/>
<path d="M310 2713 c0 -7 -4 -13 -9 -13 -5 0 -11 -8 -15 -17 -3 -10 -9 -25
-12 -33 -4 -8 10 1 30 19 38 37 46 58 21 58 -8 0 -15 -6 -15 -14z"/>
<path d="M1435 2664 c-11 -8 -19 -20 -17 -25 1 -5 -3 -8 -9 -6 -6 1 -12 -8
-14 -20 -2 -25 10 -31 18 -10 3 6 6 -16 6 -50 1 -35 5 -63 11 -63 6 0 10 13
10 29 0 16 8 56 19 90 23 73 17 86 -24 55z"/>
<path d="M1310 2657 c0 -15 29 -57 30 -42 0 6 -3 20 -6 33 -7 24 -24 31 -24 9z"/>
<path d="M2126 2621 c-4 -6 -35 -24 -69 -41 -80 -40 -114 -67 -100 -81 12 -12
72 14 85 36 5 7 17 11 28 8 11 -3 35 1 53 8 17 7 43 13 57 12 l25 -2 -25 8
c-18 7 -20 9 -7 10 15 1 16 3 5 14 -32 30 -46 38 -52 28z m32 -28 c2 -8 -5
-13 -17 -13 -12 0 -21 6 -21 16 0 18 31 15 38 -3z"/>
<path d="M235 2584 c-4 -10 -14 -41 -24 -69 -10 -27 -24 -74 -31 -103 -7 -29
-19 -67 -27 -83 -8 -16 -16 -43 -18 -60 -3 -17 -7 -40 -10 -50 -6 -19 -7 -208
-1 -259 1 -14 8 -35 14 -47 9 -17 10 -34 1 -70 -6 -26 -12 -63 -15 -82 -2 -19
-9 -40 -15 -48 -6 -7 -8 -13 -5 -13 4 0 2 -8 -3 -19 -9 -15 -7 -18 7 -17 23 1
32 15 32 49 0 17 5 27 15 27 12 0 13 4 5 19 -5 11 -9 38 -8 61 2 47 24 52 45
10 7 -14 13 -20 13 -13 0 6 -16 35 -36 65 l-35 53 4 150 c3 126 8 164 29 235
54 175 79 272 74 277 -3 3 -8 -3 -11 -13z"/>
<path d="M346 2572 c-2 -4 13 -8 35 -8 21 -1 36 2 33 7 -6 11 -61 12 -68 1z"/>
<path d="M437 2553 c3 -7 1 -13 -4 -13 -15 0 -11 -29 5 -35 10 -4 12 0 8 11
-4 11 -2 15 7 11 10 -4 13 1 10 17 -3 13 -11 23 -18 23 -7 0 -11 -6 -8 -14z"/>
<path d="M483 2547 c9 -8 17 -26 17 -41 0 -19 5 -26 19 -26 11 0 23 -4 26 -10
3 -5 14 -10 23 -10 12 0 9 6 -11 18 -15 9 -25 22 -23 28 7 17 -15 41 -44 49
-23 5 -23 5 -7 -8z"/>
<path d="M2090 2461 c-45 -24 -93 -69 -86 -80 7 -11 46 -2 46 11 0 5 -5 6 -11
2 -8 -4 -8 0 0 15 14 25 27 27 40 4 14 -26 66 -6 65 25 0 17 5 22 24 22 22 0
23 -2 11 -17 -13 -17 -12 -17 7 0 12 9 28 15 37 11 9 -3 22 -2 29 2 9 6 4 11
-17 15 -55 12 -110 8 -145 -10z"/>
<path d="M852 2442 c-10 -10 -24 -16 -30 -14 -7 2 -12 -1 -12 -8 0 -6 -5 -8
-12 -4 -7 4 -8 3 -4 -5 4 -6 13 -8 19 -4 6 4 20 8 30 8 24 2 52 31 38 39 -6 4
-19 -2 -29 -12z"/>
<path d="M895 2436 c-16 -11 -15 -14 6 -27 22 -14 91 -38 129 -45 8 -2 33 -12
55 -23 22 -10 41 -18 43 -16 1 1 -2 13 -8 26 -15 32 -83 79 -112 78 -17 -1
-18 -3 -5 -6 9 -2 17 -9 17 -15 0 -6 -12 -3 -26 7 -41 27 -80 35 -99 21z"/>
<path d="M1675 2420 c-10 -11 -21 -17 -25 -15 -4 3 -13 -1 -19 -9 -9 -11 -6
-12 15 -8 20 4 25 2 19 -8 -5 -8 -3 -11 6 -8 8 3 16 13 17 23 3 12 0 15 -9 10
-8 -6 -10 -4 -4 4 5 9 10 10 18 2 13 -13 47 -15 47 -3 0 12 -22 32 -35 32 -7
0 -20 -9 -30 -20z"/>
<path d="M390 2420 c0 -15 29 -29 67 -32 6 -1 11 -9 10 -18 -1 -19 -57 -26
-57 -8 0 6 -3 8 -6 5 -10 -9 16 -37 33 -37 8 0 28 11 44 25 29 24 29 24 9 35
-39 21 -100 39 -100 30z"/>
<path d="M273 2412 c-25 -16 5 -36 49 -33 40 2 58 14 57 36 0 6 -3 5 -5 -2 -3
-7 -13 -9 -22 -6 -15 4 -15 3 -2 -6 24 -17 -16 -14 -43 4 -12 8 -28 11 -34 7z"/>
<path d="M1451 2363 c-1 -33 -15 -44 -24 -20 -4 8 -6 6 -6 -4 -1 -23 52 -137
83 -178 31 -41 32 -51 8 -51 -42 0 -54 -51 -28 -113 18 -42 129 -122 144 -104
8 9 -1 33 -33 87 -25 40 -47 90 -51 109 -3 20 -16 68 -29 106 -13 39 -26 85
-30 103 -4 17 -11 32 -16 32 -6 0 -8 4 -5 9 4 5 2 20 -3 33 -9 21 -10 21 -10
-9z m79 -343 c21 -41 25 -60 12 -60 -7 0 -35 50 -46 83 -10 33 14 17 34 -23z"/>
<path d="M2150 2370 c-14 -4 -41 -8 -59 -9 -22 -1 -31 -5 -25 -10 10 -11 93 4
109 20 10 10 10 10 -25 -1z"/>
<path d="M514 2345 c20 -15 20 -15 0 -15 -16 0 -15 -2 6 -13 14 -7 26 -10 28
-6 6 15 -19 49 -36 49 -15 -1 -15 -2 2 -15z"/>
<path d="M1386 2338 c-11 -34 -14 -76 -7 -84 4 -5 5 -39 2 -76 -4 -40 -3 -69
3 -71 6 -2 5 -29 -2 -72 -8 -51 -8 -72 0 -80 8 -7 9 -6 3 5 -8 13 -7 13 8 1
13 -10 14 -17 6 -27 -6 -8 -8 -26 -4 -43 8 -37 9 -230 2 -251 -3 -8 -11 -39
-16 -68 -6 -30 -18 -60 -26 -68 -17 -17 -19 -52 -6 -73 6 -9 11 2 15 33 4 25
11 48 15 51 12 7 21 -48 10 -61 -5 -6 -6 -14 -3 -17 4 -3 6 -35 6 -71 -1 -67
7 -86 26 -63 11 13 21 188 11 181 -4 -2 -9 10 -13 27 -9 48 -7 127 4 134 6 4
10 -5 10 -19 0 -14 5 -26 11 -26 13 0 2 39 -18 62 -12 13 -12 21 -3 38 6 12 9
33 5 47 -3 14 -5 78 -5 142 2 208 2 226 -3 241 -4 12 -18 154 -20 208 0 6 -2
12 -4 12 -2 0 -5 -6 -7 -12z"/>
<path d="M1519 2329 c-8 -15 -8 -19 0 -15 7 5 11 -7 11 -36 1 -24 8 -61 16
-83 9 -22 18 -50 21 -62 3 -13 9 -23 13 -23 12 0 22 33 12 39 -5 3 -9 13 -10
21 -1 8 -8 40 -17 70 -8 30 -16 67 -17 82 -3 33 -13 36 -29 7z"/>
<path d="M829 2284 c-27 -28 -31 -38 -23 -51 12 -20 67 -49 109 -59 19 -4 5 7
-35 27 -63 33 -87 59 -56 59 9 0 16 5 16 11 0 6 12 9 28 8 15 -2 33 0 39 4 7
4 25 2 40 -6 15 -8 34 -12 42 -9 10 3 12 -1 8 -17 -3 -13 0 -21 8 -21 7 0 26
-3 42 -6 40 -8 55 22 19 36 -13 5 -27 14 -31 20 -4 6 -16 8 -28 5 -16 -5 -18
-4 -8 3 22 15 -6 26 -75 28 -59 2 -64 0 -95 -32z"/>
<path d="M1684 2290 c-32 -13 -36 -25 -15 -44 15 -14 23 -15 45 -5 14 7 26 19
26 27 0 12 -3 12 -17 1 -10 -8 -21 -18 -25 -24 -5 -6 -8 -5 -8 3 0 7 -5 10
-12 6 -7 -4 -8 -3 -4 5 4 6 22 18 39 25 23 11 27 14 12 15 -11 0 -30 -4 -41
-9z"/>
<path d="M1185 2213 c-7 -85 -10 -99 -49 -248 -32 -118 -62 -184 -118 -257
l-42 -53 43 40 c47 44 81 103 104 181 8 28 22 65 31 81 8 17 18 41 20 54 14
61 25 128 29 174 3 28 6 55 7 60 5 20 0 45 -9 45 -5 0 -12 -35 -16 -77z"/>
<path d="M375 2272 c8 -9 105 -10 100 -2 -3 4 -27 7 -55 7 -27 0 -47 -3 -45
-5z"/>
<path d="M902 2248 c5 -15 58 -24 58 -10 0 5 -10 12 -22 16 -34 9 -40 7 -36
-6z"/>
<path d="M2111 2224 c6 -8 17 -14 24 -14 8 0 15 -6 18 -12 2 -7 8 -10 12 -5 9
8 -20 33 -48 41 -15 4 -16 2 -6 -10z"/>
<path d="M2053 2138 c-25 -12 -38 -38 -20 -38 7 0 17 4 23 9 5 5 20 11 34 13
14 1 25 8 25 13 0 14 -36 16 -62 3z"/>
<path d="M484 2132 c-6 -4 -14 -25 -18 -47 l-8 -40 26 38 c34 49 34 72 0 49z"/>
<path d="M1590 2077 c0 -13 7 -32 15 -43 13 -18 14 -17 12 12 -3 39 -27 67
-27 31z"/>
<path d="M1995 2090 c-4 -7 -18 -9 -32 -5 -31 7 -59 -1 -67 -21 -4 -11 -2 -12
14 -4 10 5 31 10 47 10 31 0 61 15 51 25 -3 4 -9 1 -13 -5z"/>
<path d="M776 2072 c-4 -6 -2 -20 4 -31 5 -11 10 -29 10 -40 0 -12 5 -21 10
-21 6 0 10 15 10 33 0 38 -23 77 -34 59z"/>
<path d="M2233 2020 c-18 -11 -33 -25 -33 -31 0 -6 -7 -9 -15 -5 -8 3 -15 0
-15 -7 -1 -14 -74 -67 -95 -67 -7 0 -17 -4 -20 -10 -14 -22 30 -8 74 24 26 19
59 38 73 41 15 4 32 13 39 21 6 8 17 14 23 14 6 0 17 10 25 23 10 17 11 19 0
10 -16 -15 -33 -17 -24 -3 9 14 5 13 -32 -10z"/>
<path d="M497 1989 c22 -21 85 -15 76 7 -3 9 -19 13 -49 12 -42 -2 -43 -3 -27
-19z"/>
<path d="M2121 1983 c-23 -5 -57 -30 -50 -38 2 -1 24 8 49 20 45 24 45 26 1
18z"/>
<path d="M640 1970 c-11 -7 -8 -10 16 -10 19 0 34 -6 38 -15 6 -16 66 -22 66
-6 0 29 -87 52 -120 31z"/>
<path d="M350 1914 c0 -13 67 -60 109 -77 57 -23 194 -53 284 -62 58 -6 67 -5
67 9 0 14 -37 23 -72 17 -5 0 -8 4 -8 9 0 7 -6 7 -18 1 -11 -6 -24 -6 -33 0
-7 5 -24 9 -36 9 -13 0 -23 4 -23 9 0 5 -26 12 -57 16 -77 9 -148 33 -169 56
-16 18 -44 26 -44 13z"/>
<path d="M1650 1889 c0 -6 -4 -7 -10 -4 -5 3 -10 1 -10 -4 0 -6 6 -11 13 -12
6 -1 19 -2 28 -3 9 0 32 -21 51 -46 18 -25 61 -66 93 -91 40 -30 61 -53 63
-69 1 -14 8 -29 14 -35 8 -7 9 -6 3 4 -6 10 -2 11 16 6 l24 -7 -24 21 c-14 12
-26 29 -27 39 -2 9 -8 18 -13 20 -6 2 -11 9 -11 16 0 13 -19 31 -64 60 -17 10
-40 31 -53 47 -27 32 -93 73 -93 58z"/>
<path d="M251 1774 c19 -22 50 -62 69 -89 19 -28 57 -79 85 -115 28 -36 56
-78 63 -93 14 -34 16 -139 2 -187 -7 -23 -6 -38 1 -45 7 -7 8 -5 4 8 -4 10 -2
17 4 17 6 0 11 8 11 19 0 10 7 51 16 90 12 52 21 71 33 72 10 0 6 4 -9 10 -27
11 -69 57 -70 77 0 6 -4 12 -8 12 -5 0 -30 27 -58 61 -27 33 -54 66 -59 72 -6
7 -26 33 -43 59 -18 26 -43 53 -55 59 -16 9 -12 2 14 -27z"/>
<path d="M2520 1721 c0 -5 15 -19 34 -30 34 -22 66 -74 66 -108 -1 -40 -47
-193 -65 -212 -10 -12 -14 -21 -9 -21 5 -1 -2 -10 -15 -20 -13 -11 -19 -20
-14 -20 16 0 60 54 86 106 55 110 55 227 -1 287 -25 26 -82 39 -82 18z"/>
<path d="M1837 1663 c-10 -17 20 -105 53 -155 17 -25 55 -67 84 -92 59 -50
187 -123 226 -128 14 -2 31 -7 38 -12 7 -4 16 -6 18 -3 3 3 -21 18 -53 33 -32
15 -60 31 -63 34 -3 3 -12 6 -20 8 -31 7 -131 75 -179 121 -52 50 -64 71 -85
155 -7 27 -16 45 -19 39z"/>
<path d="M85 1620 c3 -5 -2 -11 -12 -12 -10 0 -22 -2 -28 -3 -5 -2 -14 -4 -20
-5 -5 -1 -13 -2 -17 -1 -5 0 -8 -5 -8 -13 0 -19 35 -24 85 -12 48 11 49 11 40
26 -6 9 -10 9 -16 -1 -6 -10 -9 -8 -9 9 0 12 -5 22 -11 22 -5 0 -7 -4 -4 -10z"/>
<path d="M160 1602 c0 -26 17 -35 57 -30 l28 4 -30 8 c-16 5 -36 15 -42 24
-11 14 -13 13 -13 -6z"/>
<path d="M1653 1597 c-17 -7 -35 -16 -40 -20 -4 -5 5 -3 21 2 15 6 31 9 36 6
5 -3 11 -1 15 5 4 6 10 8 15 5 5 -3 11 -1 15 5 8 13 -22 12 -62 -3z"/>
<path d="M810 1550 c-122 -71 -161 -89 -203 -92 -20 -1 -37 -6 -37 -10 0 -22
188 32 210 60 3 4 31 24 63 45 31 20 57 39 57 42 0 7 2 8 -90 -45z"/>
<path d="M1635 1567 c-10 -8 -15 -19 -11 -25 10 -17 33 -15 40 4 14 36 3 44
-29 21z"/>
<path d="M114 1525 c19 -28 60 -160 69 -227 2 -9 8 -22 13 -29 6 -8 16 -33 21
-56 14 -55 4 -67 -72 -87 -74 -21 -118 -43 -134 -68 -7 -11 -11 -21 -9 -23 2
-2 30 10 63 25 33 16 68 29 78 30 9 0 17 5 17 10 0 6 4 10 10 10 26 0 91 37
97 55 10 30 4 85 -12 114 -7 14 -26 71 -41 126 -34 121 -54 155 -94 155 l-29
0 23 -35z"/>
<path d="M1550 1553 c-8 -3 -34 -15 -57 -26 -43 -20 -51 -38 -33 -67 7 -11 10
-8 10 16 0 28 5 33 58 57 50 22 64 35 22 20z"/>
<path d="M1448 1364 c-2 -36 -9 -68 -15 -72 -5 -4 -13 -28 -17 -55 -4 -26 -11
-45 -16 -42 -12 7 -17 -13 -19 -84 -2 -46 -11 -83 -31 -125 -30 -68 -93 -146
-116 -146 -9 0 -13 -4 -9 -9 3 -6 -7 -21 -22 -35 -15 -14 -24 -26 -19 -26 6 0
20 10 33 21 l22 22 38 -28 c152 -113 188 -160 301 -389 73 -149 83 -175 80
-214 -3 -45 -2 -46 31 -53 44 -9 53 -24 45 -82 -6 -46 -5 -47 21 -47 23 0 25
3 16 14 -8 9 -10 28 -6 49 6 30 3 38 -30 70 -20 19 -41 52 -47 73 -6 22 -51
122 -102 224 -50 102 -90 189 -88 193 1 5 -1 7 -5 4 -5 -2 -28 20 -53 49 -25
29 -48 53 -52 53 -9 1 -128 92 -128 98 0 2 24 32 53 67 78 91 104 152 111 260
4 48 13 109 21 135 17 54 26 141 15 141 -4 0 -10 -30 -12 -66z"/>
<path d="M1708 1303 c-10 -3 -18 -7 -18 -9 0 -14 32 -64 40 -64 16 0 12 20 -5
26 -21 8 -19 32 3 36 9 2 13 6 7 9 -5 3 -18 4 -27 2z"/>
<path d="M2394 1288 c-7 -11 5 -28 19 -28 7 0 30 9 52 19 l40 18 -53 -1 c-30
0 -56 -4 -58 -8z"/>
<path d="M90 1254 c-36 -14 -67 -29 -68 -34 -2 -6 -8 -8 -13 -4 -5 3 -9 0 -9
-5 0 -15 -2 -16 92 29 94 44 94 51 -2 14z"/>
<path d="M488 1248 c-8 -13 -18 -40 -21 -62 -3 -21 -14 -47 -23 -57 -18 -20
-9 -25 14 -10 13 8 56 140 48 148 -2 2 -10 -7 -18 -19z"/>
<path d="M2222 1231 c-10 -6 -8 -10 10 -16 35 -11 58 -12 58 -4 0 3 -8 9 -17
13 -10 3 -22 8 -28 11 -5 3 -16 1 -23 -4z"/>
<path d="M2045 1204 c57 -47 172 -97 228 -99 29 -2 39 -1 22 2 -52 7 -168 55
-216 90 -54 39 -78 44 -34 7z"/>
<path d="M277 1153 c-4 -4 25 -15 65 -24 80 -19 99 -18 44 2 -20 7 -36 16 -36
19 0 9 -65 12 -73 3z"/>
<path d="M1301 1111 c-6 -10 -7 -21 -4 -25 3 -3 -2 -15 -12 -26 -18 -20 -18
-21 -1 -14 17 7 17 5 3 -17 -8 -13 -18 -39 -22 -56 -4 -18 -11 -36 -17 -39 -5
-4 -17 -23 -25 -43 -9 -20 -18 -30 -20 -23 -3 8 -11 4 -24 -12 -25 -32 -25
-45 1 -15 14 17 19 20 20 9 2 -53 108 158 117 232 6 50 0 61 -16 29z"/>
<path d="M1192 948 c-6 -18 -30 -55 -52 -82 -48 -58 -52 -71 -9 -30 36 33 89
112 89 131 0 24 -16 13 -28 -19z"/>
<path d="M1754 958 c-5 -7 -3 -8 5 -3 9 5 12 2 9 -11 -2 -11 -10 -18 -16 -16
-7 1 -12 -1 -12 -5 0 -4 36 -118 79 -253 44 -135 103 -341 132 -458 28 -116
55 -212 59 -212 4 0 10 7 14 15 3 8 1 15 -4 15 -6 0 -10 9 -10 20 0 11 -13 72
-30 136 -16 64 -27 120 -25 125 3 4 1 10 -5 14 -5 3 -10 16 -10 29 0 12 -4 26
-10 32 -5 5 -11 25 -14 44 -2 20 -11 53 -20 74 -9 21 -14 42 -11 46 3 5 0 12
-6 15 -5 4 -8 13 -5 21 3 7 1 16 -5 20 -6 3 -8 13 -5 21 3 8 2 12 -3 9 -5 -3
-11 5 -13 19 -3 14 -1 25 6 25 6 0 3 5 -6 11 -10 5 -18 18 -18 29 0 10 -5 31
-12 47 -6 15 -10 34 -9 41 1 6 -2 12 -8 12 -5 0 -8 12 -6 26 2 18 -4 28 -19
34 -11 5 -16 9 -11 9 6 1 11 19 12 41 2 39 -9 52 -23 28z"/>
<path d="M990 860 c-6 -23 -9 -44 -6 -47 2 -3 10 14 16 37 6 23 9 44 6 47 -2
3 -10 -14 -16 -37z"/>
<path d="M1219 740 c-4 -8 0 -23 9 -33 8 -9 13 -19 10 -22 -10 -10 -126 -21
-153 -14 -23 7 -38 2 -82 -27 -29 -20 -53 -40 -53 -46 0 -5 21 6 48 25 44 32
51 34 109 29 44 -3 75 0 104 12 23 9 50 14 60 11 13 -4 19 -2 19 9 0 8 -13 17
-29 21 -20 4 -31 13 -33 28 -3 16 -5 18 -9 7z"/>
<path d="M856 518 c-3 -13 -7 -47 -10 -77 -3 -30 -10 -59 -15 -64 -5 -5 -6
-19 -2 -31 4 -11 9 -43 10 -71 2 -27 5 -53 8 -58 2 -4 -1 -14 -7 -22 -13 -16
-6 -35 13 -35 9 0 12 50 12 190 0 105 -1 190 -2 190 -2 0 -5 -10 -7 -22z"/>
<path d="M866 152 c-3 -5 -1 -24 4 -43 6 -18 7 -42 4 -53 -4 -11 -2 -16 3 -13
6 4 8 -4 5 -18 -3 -18 0 -25 12 -25 27 0 17 148 -11 157 -6 2 -14 0 -17 -5z"/>
</g>
</svg>
