<?xml version="1.0" standalone="no"?>
<!DOCTYPE svg PUBLIC "-//W3C//DTD SVG 20010904//EN"
 "http://www.w3.org/TR/2001/REC-SVG-20010904/DTD/svg10.dtd">
<svg version="1.0" xmlns="http://www.w3.org/2000/svg"
 width="300.000000pt" height="300.000000pt" viewBox="0 0 300.000000 300.000000"
 preserveAspectRatio="xMidYMid meet">
<metadata>
Created by potrace 1.10, written by Peter Selinger 2001-2011
</metadata>
<g transform="translate(0.000000,300.000000) scale(0.100000,-0.100000)"
fill="#000000" stroke="none">
<path d="M763 2768 c2 -7 9 -12 15 -11 6 2 13 -6 17 -16 7 -23 32 -34 41 -19
4 7 3 8 -4 4 -7 -4 -12 -3 -12 2 0 12 -39 52 -51 52 -6 0 -9 -6 -6 -12z"/>
<path d="M2045 2730 c25 -17 27 -20 10 -20 -11 0 -27 -5 -35 -10 -11 -8 -8 -9
13 -4 17 4 27 2 27 -5 0 -6 9 -11 20 -11 11 0 25 -8 31 -19 7 -11 20 -16 30
-14 16 4 14 9 -14 38 -30 30 -86 65 -104 65 -4 0 6 -9 22 -20z"/>
<path d="M911 2683 c-1 -6 -12 -10 -25 -9 -13 2 -50 -3 -82 -10 -32 -7 -49
-13 -36 -13 12 -1 22 -5 22 -9 0 -11 42 -13 55 -2 5 4 39 14 74 21 51 10 66
10 69 0 3 -9 7 -9 18 0 10 8 14 8 14 0 0 -6 7 -11 16 -11 8 0 13 4 10 9 -4 5
3 7 15 4 16 -4 18 -8 7 -14 -8 -6 -1 -7 19 -3 24 5 34 2 43 -13 9 -14 20 -18
43 -15 19 3 28 1 23 -6 -3 -5 0 -12 8 -15 19 -7 25 0 19 22 -3 12 -12 17 -29
15 -13 -1 -31 5 -40 13 -28 28 -117 44 -189 33 -29 -4 -46 -3 -49 4 -3 7 -5 7
-5 -1z"/>
<path d="M2310 2673 c0 -16 48 -68 56 -60 4 4 -2 16 -14 27 -12 12 -22 25 -22
30 0 6 -4 10 -10 10 -5 0 -10 -3 -10 -7z"/>
<path d="M1893 2648 c4 -20 21 -36 32 -30 6 3 4 -1 -3 -10 -10 -13 -10 -17 3
-22 8 -3 15 -17 15 -31 0 -24 2 -25 15 -11 18 17 20 30 3 20 -7 -5 -9 -2 -6 8
7 18 -21 80 -33 72 -5 -3 -9 0 -9 5 0 6 -4 11 -10 11 -5 0 -9 -5 -7 -12z"/>
<path d="M1995 2650 c3 -5 13 -10 21 -10 21 0 64 -30 64 -45 0 -7 -9 -11 -24
-8 -17 4 -25 0 -29 -16 -3 -12 0 -24 5 -28 7 -3 8 -1 4 5 -4 7 -2 12 4 12 6 0
9 4 6 9 -4 5 2 7 11 5 10 -2 24 0 32 5 11 7 10 14 -5 37 -10 16 -23 32 -29 36
-15 12 -67 10 -60 -2z"/>
<path d="M2215 2641 c1 -11 12 -16 34 -15 17 0 31 -3 31 -8 0 -4 -4 -8 -9 -8
-5 0 -7 -9 -4 -20 6 -22 6 -22 -49 -25 -24 -1 -39 3 -42 12 -3 8 -10 12 -15 8
-5 -3 -12 -1 -16 5 -8 13 -35 13 -35 -1 0 -5 5 -7 10 -4 6 3 10 1 10 -4 0 -6
6 -11 13 -11 7 0 19 -9 27 -20 15 -21 37 -29 24 -9 -4 7 1 7 16 -1 16 -8 25
-9 29 -1 5 7 24 8 59 2 28 -4 49 -4 46 1 -3 4 -18 8 -35 8 -25 0 -29 4 -29 29
0 28 14 50 22 34 3 -9 64 -53 73 -53 14 0 3 20 -12 21 -15 0 -15 2 2 9 20 8
20 9 -1 9 -11 1 -29 10 -38 20 -10 11 -24 17 -31 15 -7 -3 -15 2 -18 10 -8 21
-66 18 -62 -3z"/>
<path d="M2155 2628 c11 -6 25 -19 32 -27 6 -9 14 -13 17 -10 9 9 -33 49 -52
49 -14 -1 -14 -2 3 -12z"/>
<path d="M1965 2611 c-3 -5 2 -16 10 -24 8 -9 12 -23 9 -31 -4 -11 -1 -16 11
-16 12 0 15 5 10 23 -4 12 -13 27 -21 33 -7 6 -11 14 -7 17 3 4 4 7 0 7 -3 0
-8 -4 -12 -9z"/>
<path d="M1250 2600 c-16 -10 -14 -11 39 -16 22 -1 30 1 21 6 -7 4 -20 6 -28
2 -10 -3 -13 -1 -8 6 9 14 -3 15 -24 2z"/>
<path d="M1290 2556 c0 -6 9 -12 20 -12 11 0 20 4 20 9 0 5 8 6 17 3 10 -4 14
-4 10 1 -13 13 -67 12 -67 -1z"/>
<path d="M2397 2548 c3 -13 5 -34 5 -48 0 -23 1 -23 13 -7 11 15 14 15 18 3 3
-8 3 -17 -1 -19 -4 -2 -1 -2 6 -1 6 2 12 -1 12 -6 0 -6 4 -10 9 -10 5 0 1 16
-7 35 -9 19 -20 35 -24 35 -4 0 -8 5 -8 10 0 31 71 -29 74 -63 3 -25 1 -26
-50 -26 -35 0 -54 5 -54 12 0 8 -3 8 -9 -1 -4 -7 -17 -14 -28 -15 -11 0 -20
-6 -20 -12 0 -6 28 -10 74 -9 56 1 73 -1 73 -12 0 -9 11 -14 28 -14 34 0 112
-55 112 -79 0 -14 6 -17 25 -13 30 5 34 22 5 22 -13 0 -22 9 -26 25 -6 23 -14
29 -30 23 -4 -2 -10 7 -15 20 -6 17 -16 22 -43 22 -37 0 -57 16 -32 26 9 3 16
12 16 19 0 15 27 28 41 19 5 -3 9 -11 9 -18 0 -8 8 -20 18 -27 16 -13 16 -12
3 4 -13 16 -13 20 0 28 10 6 18 1 28 -21 8 -17 20 -30 27 -30 7 0 16 -9 19
-20 3 -11 10 -20 15 -20 5 0 6 8 3 18 -6 15 -5 15 10 3 9 -7 17 -20 17 -29 0
-8 3 -13 6 -10 3 4 21 0 40 -8 19 -8 34 -11 34 -7 -1 16 -26 40 -50 48 -14 4
-28 12 -31 17 -4 6 -22 13 -40 17 -24 5 -34 12 -32 25 2 25 -31 56 -48 45 -21
-13 -29 -11 -29 8 0 14 -2 14 -21 -3 -17 -16 -22 -16 -29 -4 -6 8 -10 20 -10
27 0 7 -7 10 -15 6 -9 -3 -23 1 -33 10 -9 8 -27 18 -39 21 -19 6 -21 4 -16
-16z"/>
<path d="M213 2523 c-7 -2 -13 -9 -13 -15 0 -5 -10 -18 -22 -29 -13 -10 -17
-18 -10 -19 7 0 23 11 35 23 12 13 31 29 42 35 20 11 20 11 0 11 -11 0 -26 -3
-32 -6z"/>
<path d="M1328 2512 c9 -11 20 -17 23 -16 7 4 49 -33 49 -42 0 -4 -8 -3 -17 0
-14 6 -14 4 2 -16 11 -13 22 -25 24 -28 2 -3 0 6 -4 20 -7 23 -6 24 9 11 16
-13 16 -12 5 12 -7 15 -20 29 -31 32 -10 4 -23 15 -28 26 -6 10 -20 19 -30 19
-19 0 -19 -1 -2 -18z"/>
<path d="M1838 2523 c-16 -2 -28 -8 -28 -13 0 -4 -16 -11 -36 -14 -31 -6 -34
-9 -22 -23 12 -15 13 -15 16 0 2 11 13 17 33 17 16 0 29 5 29 10 0 6 21 10 48
11 35 0 42 3 27 9 -21 9 -25 9 -67 3z"/>
<path d="M133 2443 c4 -3 2 -12 -4 -20 -9 -9 -8 -13 0 -13 6 0 11 5 11 10 0 6
9 10 21 10 11 0 17 5 14 10 -3 6 -16 10 -27 10 -12 0 -18 -3 -15 -7z"/>
<path d="M1416 2405 c-9 -7 -13 -15 -7 -16 5 -2 11 -15 13 -29 5 -34 17 -52
31 -43 7 4 5 -1 -3 -11 -13 -16 -12 -20 3 -31 18 -13 24 -30 6 -19 -6 3 4 -16
23 -43 20 -31 38 -48 47 -45 11 4 11 8 -3 17 -10 8 -14 19 -9 30 5 14 3 16 -7
10 -10 -6 -12 -4 -7 8 4 11 1 17 -9 17 -8 0 -13 4 -9 9 3 5 -1 16 -9 24 -8 8
-13 17 -10 20 3 3 -6 26 -20 51 -14 25 -21 48 -16 51 5 3 11 1 15 -5 4 -6 11
-8 16 -5 5 3 6 -1 3 -9 -3 -9 -1 -16 5 -16 6 0 11 -5 11 -11 0 -11 12 -40 55
-134 30 -66 39 -96 36 -117 -1 -10 4 -18 12 -18 19 0 16 31 -5 80 -9 19 -21
51 -28 70 -7 19 -23 58 -35 85 -13 28 -25 59 -29 70 -7 23 -44 29 -70 10z"/>
<path d="M2234 2406 c-11 -8 -31 -16 -44 -18 l-25 -4 27 -5 c19 -4 34 1 54 18
29 25 21 32 -12 9z"/>
<path d="M69 2351 c-6 -17 -14 -31 -19 -31 -11 0 -20 -39 -10 -45 5 -3 12 5
16 17 4 13 9 25 13 28 16 13 30 50 21 55 -6 4 -15 -7 -21 -24z"/>
<path d="M1153 2340 c1 -11 5 -20 9 -20 12 0 58 -47 58 -59 0 -7 5 -9 10 -6 6
3 10 -1 10 -9 0 -9 4 -16 8 -16 18 0 4 44 -15 51 -12 4 -24 13 -29 20 -5 9 -2
10 10 6 11 -4 15 -3 11 4 -4 6 -14 8 -22 5 -10 -4 -13 -2 -10 8 4 10 1 13 -9
9 -8 -3 -14 1 -14 11 0 9 -4 16 -9 16 -6 0 -9 -9 -8 -20z"/>
<path d="M2773 2313 c-16 -6 -17 -33 -2 -33 5 0 7 5 4 10 -3 6 2 10 11 10 16
0 16 -1 1 -18 -15 -16 -15 -19 2 -29 16 -10 19 -24 17 -96 0 -47 2 -83 7 -80
4 2 7 -1 7 -6 0 -6 -7 -11 -15 -11 -8 0 -15 -2 -15 -4 0 -19 65 -167 90 -206
48 -74 80 -147 80 -179 0 -31 14 -49 25 -31 3 5 1 10 -4 10 -6 0 -11 18 -11
41 0 36 -23 104 -40 119 -3 3 -13 17 -23 33 -17 26 -17 28 0 34 10 4 26 16 35
28 15 17 19 18 27 5 5 -8 7 -18 5 -22 -3 -4 2 -8 11 -8 11 0 15 8 13 30 -3 39
-36 41 -79 3 -17 -16 -34 -27 -37 -26 -7 2 -13 39 -27 163 -4 36 -11 70 -15
75 -5 6 -7 36 -5 68 2 31 -1 57 -6 57 -5 0 -9 8 -9 18 -1 16 -23 53 -31 51 -2
0 -10 -3 -16 -6z"/>
<path d="M1622 2281 c-3 -9 -13 -21 -21 -28 -9 -6 -13 -15 -9 -19 4 -4 3 -13
-3 -21 -9 -10 -6 -13 12 -13 22 -1 23 -2 7 -14 -10 -7 -18 -16 -18 -20 0 -12
28 -6 40 9 7 8 16 15 21 15 5 0 6 -7 3 -15 -7 -17 4 -19 25 -6 21 14 -4 41
-36 41 -22 0 -24 2 -13 15 8 10 9 15 2 15 -24 0 2 30 32 38 l31 9 -33 5 c-25
3 -35 1 -40 -11z"/>
<path d="M2640 2289 c0 -5 5 -7 10 -4 6 3 10 -3 10 -15 0 -11 7 -23 15 -26 8
-4 15 -10 15 -15 0 -14 33 -49 47 -49 19 0 16 13 -8 33 -11 10 -18 25 -15 33
3 9 1 12 -4 9 -6 -3 -14 5 -20 19 -9 26 -50 38 -50 15z"/>
<path d="M1280 2190 c0 -16 5 -30 10 -30 6 0 10 -11 10 -25 0 -14 4 -25 10
-25 5 0 12 -16 16 -35 3 -19 10 -35 14 -35 10 0 22 31 15 38 -3 3 -5 1 -5 -4
-1 -16 -30 70 -30 90 0 13 -5 16 -16 12 -13 -5 -15 -1 -10 19 4 14 2 25 -4 25
-5 0 -10 -13 -10 -30z"/>
<path d="M251 2152 c-12 -18 -18 -32 -13 -32 15 0 44 38 40 51 -2 7 -14 -1
-27 -19z"/>
<path d="M1688 2142 c-44 -17 -49 -32 -13 -32 24 0 35 -23 17 -34 -5 -3 -9
-26 -10 -53 0 -26 1 -43 4 -36 6 14 43 168 41 169 -1 0 -19 -6 -39 -14z"/>
<path d="M1614 2085 l-21 -23 23 -11 c19 -8 24 -7 29 9 4 11 13 20 21 20 8 0
14 5 14 10 0 6 -4 10 -9 10 -5 0 -15 2 -23 4 -7 2 -23 -6 -34 -19z"/>
<path d="M2530 2074 c0 -9 -9 -18 -20 -21 -14 -4 -17 -9 -11 -17 7 -8 -2 -11
-31 -12 -21 0 -42 -5 -46 -11 -4 -6 -16 -13 -28 -17 -12 -3 -26 -18 -32 -32
-16 -33 -15 -34 8 -34 13 0 24 10 30 25 5 14 17 25 27 25 16 0 16 -2 3 -11
-13 -9 -13 -10 0 -6 8 2 14 11 12 21 -3 17 32 23 42 7 6 -10 76 8 76 19 0 3
15 5 33 4 17 -1 22 1 10 3 -13 2 -23 9 -23 14 0 5 -11 9 -25 9 -28 0 -35 20
-7 21 10 0 12 3 4 6 -6 2 -10 9 -6 14 3 5 0 9 -5 9 -6 0 -11 -7 -11 -16z"/>
<path d="M380 2018 c0 -9 20 -11 59 -8 13 1 26 -3 30 -8 3 -6 24 -13 46 -16
l40 -6 -40 16 c-47 20 -135 34 -135 22z"/>
<path d="M151 1933 c-7 -32 -17 -68 -22 -80 -5 -13 -4 -25 1 -28 5 -3 12 11
15 32 4 21 10 47 15 58 14 34 21 75 12 75 -5 0 -14 -26 -21 -57z"/>
<path d="M1377 1938 c1 -18 2 -61 2 -95 1 -35 5 -63 11 -63 11 0 13 74 4 144
-8 52 -20 63 -17 14z"/>
<path d="M2517 1889 c-32 -17 -38 -24 -35 -47 4 -32 27 -39 69 -22 28 12 42
50 18 50 -5 0 -7 5 -4 10 3 6 17 10 31 10 27 0 32 -21 9 -40 -16 -13 -20 -30
-7 -30 4 0 15 14 25 31 14 25 22 30 42 25 40 -10 37 10 -4 23 -53 15 -99 12
-144 -10z m33 -38 c0 -22 -35 -34 -49 -17 -7 9 -7 16 1 24 19 19 48 14 48 -7z"/>
<path d="M958 1856 c-26 -19 -22 -27 8 -16 14 6 35 10 47 10 20 0 20 0 1 -16
-16 -13 -16 -15 -1 -10 10 3 17 0 17 -9 0 -9 11 -13 32 -13 18 1 34 -4 36 -10
2 -7 11 -12 20 -12 24 0 94 -26 137 -50 21 -12 40 -19 42 -16 11 10 -8 38 -28
43 -16 4 -17 8 -7 14 10 7 9 9 -4 9 -9 0 -20 -5 -23 -10 -4 -6 -12 -4 -22 6
-10 10 -25 13 -39 10 -25 -7 -34 8 -11 17 6 3 0 6 -15 6 -16 1 -28 5 -28 10 0
14 -32 23 -44 11 -12 -12 -36 -13 -36 -2 0 5 10 14 23 20 20 10 20 11 -13 11
-19 1 -44 3 -55 6 -11 3 -28 -1 -37 -9z"/>
<path d="M2428 1828 c-30 -31 -35 -48 -15 -48 11 0 52 69 45 75 -2 1 -15 -11
-30 -27z"/>
<path d="M236 1832 c-3 -3 2 -11 12 -19 16 -12 16 -13 0 -7 -12 4 -18 1 -18
-10 0 -11 9 -16 31 -16 24 0 30 3 25 16 -3 9 -6 19 -6 24 0 9 -37 20 -44 12z"/>
<path d="M356 1833 c-14 -14 -4 -18 47 -19 32 -1 44 1 32 6 -39 14 -72 20 -79
13z"/>
<path d="M1172 1828 c3 -7 20 -18 39 -25 l34 -13 -30 25 c-32 27 -49 32 -43
13z"/>
<path d="M1933 1812 c-13 -2 -23 -6 -23 -10 0 -9 56 -9 65 -1 9 9 -16 16 -42
11z"/>
<path d="M462 1801 c-10 -6 -10 -10 3 -21 12 -10 13 -16 4 -27 -17 -20 -7 -24
16 -7 20 15 20 15 1 30 -11 8 -15 14 -10 14 6 0 15 -5 22 -12 6 -6 15 -8 19
-4 5 4 -1 14 -11 22 -23 16 -26 17 -44 5z"/>
<path d="M106 1760 c-4 -19 -14 -42 -21 -50 -7 -8 -16 -36 -20 -63 -4 -26 -11
-50 -16 -53 -5 -3 -6 -10 -3 -16 6 -10 6 -131 -1 -233 -1 -27 1 -59 5 -70 7
-15 9 -9 10 25 5 254 15 340 47 406 8 17 13 44 11 60 l-4 29 -8 -35z"/>
<path d="M1810 1763 c0 -9 -8 -25 -17 -35 -14 -16 -15 -21 -4 -28 8 -4 17 -37
21 -76 9 -80 39 -164 58 -164 9 0 12 6 8 16 -3 9 -7 28 -7 42 -1 21 -2 23 -6
7 -8 -30 -32 58 -28 101 2 19 -1 32 -6 29 -5 -3 -8 24 -6 60 1 36 -1 65 -5 65
-5 0 -8 -8 -8 -17z"/>
<path d="M1380 1728 c0 -26 4 -38 9 -32 17 17 17 74 1 74 -5 0 -10 -19 -10
-42z"/>
<path d="M2520 1761 c-24 -4 -30 -8 -19 -13 9 -3 41 -1 70 7 47 11 49 13 19
13 -19 -1 -51 -3 -70 -7z"/>
<path d="M530 1746 c0 -8 7 -17 16 -20 8 -3 13 -10 9 -15 -3 -5 -1 -12 5 -16
15 -9 12 27 -4 48 -16 21 -26 22 -26 3z"/>
<path d="M1623 1719 c-6 -19 -10 -45 -9 -59 2 -14 7 -64 11 -112 4 -49 11 -90
16 -94 5 -3 6 -16 3 -30 -4 -15 -2 -24 6 -24 6 0 8 -5 5 -10 -4 -6 -11 -8 -16
-5 -5 4 -9 0 -9 -9 0 -8 4 -16 9 -18 4 -1 10 -24 13 -50 3 -26 2 -46 -2 -43
-4 3 -6 -16 -5 -40 2 -25 -1 -43 -6 -40 -5 4 -6 -1 -3 -9 11 -28 34 -5 33 33
0 20 0 80 1 134 0 54 -1 101 -4 105 -2 4 -7 45 -11 92 -3 47 -9 114 -13 149
l-7 64 -12 -34z"/>
<path d="M1663 1708 c7 -18 14 -35 17 -38 3 -3 16 -30 30 -60 14 -30 28 -56
33 -58 4 -2 7 -9 7 -15 1 -20 60 -84 60 -64 0 17 -33 110 -50 139 -6 10 -10
29 -10 42 0 45 -18 76 -42 75 -13 -1 -31 2 -40 6 -15 6 -16 3 -5 -27z"/>
<path d="M1026 1695 c-3 -8 -16 -15 -28 -14 -22 0 -22 1 -3 9 19 8 19 9 -2 9
-12 1 -28 -5 -35 -12 -7 -7 -25 -21 -40 -31 -17 -11 -28 -27 -27 -40 1 -17 2
-17 6 -3 2 9 13 17 23 17 9 0 23 7 31 16 8 10 22 14 38 11 16 -3 29 1 37 11
10 14 17 13 70 -11 34 -15 58 -33 58 -41 -1 -8 16 -19 38 -27 34 -11 41 -11
49 2 10 16 8 31 -4 29 -4 0 -15 6 -23 15 -10 10 -25 13 -38 10 -15 -5 -17 -4
-8 3 24 16 -41 55 -78 47 -19 -4 -30 -3 -30 4 0 17 -27 13 -34 -4z"/>
<path d="M2070 1681 c8 -5 31 -12 50 -16 30 -7 33 -6 22 7 -6 8 -29 15 -49 16
-26 1 -33 -2 -23 -7z"/>
<path d="M1375 1595 c-4 -44 -16 -120 -27 -170 -11 -49 -20 -100 -19 -111 0
-12 -6 -27 -14 -34 -8 -7 -15 -29 -15 -49 l0 -36 21 45 c11 25 22 54 23 65 1
11 5 27 8 35 12 31 30 127 37 200 4 42 10 80 14 86 3 6 0 19 -7 30 -12 16 -15
9 -21 -61z"/>
<path d="M1968 1654 c-15 -15 -14 -18 3 -35 21 -21 39 -25 39 -9 0 6 -7 10
-15 10 -28 0 -15 27 18 38 l32 10 -30 1 c-17 1 -38 -6 -47 -15z"/>
<path d="M1022 1619 c6 -18 47 -24 61 -10 8 8 5 11 -10 11 -12 0 -29 3 -39 7
-12 4 -15 2 -12 -8z"/>
<path d="M1676 1549 c-8 -43 -8 -61 2 -55 8 5 16 86 8 86 -2 0 -6 -14 -10 -31z"/>
<path d="M2448 1475 c-16 -9 -28 -22 -28 -30 0 -19 14 -19 30 0 7 8 28 15 47
15 23 0 33 4 31 13 -6 18 -49 19 -80 2z"/>
<path d="M485 1434 c-19 -45 -19 -50 0 -34 8 7 15 18 15 25 0 7 7 15 15 19 19
7 19 26 0 26 -8 0 -22 -16 -30 -36z"/>
<path d="M1772 1440 c-44 -10 -47 -15 -45 -63 2 -63 27 -112 70 -138 21 -13
40 -26 43 -29 3 -3 20 -16 38 -29 28 -20 34 -21 47 -8 13 13 12 17 -2 29 -9 7
-19 12 -22 11 -25 -6 -121 59 -121 83 0 7 -4 14 -10 16 -5 2 -10 23 -12 47 -2
36 0 44 15 47 15 2 18 -2 13 -21 -3 -13 -1 -27 5 -30 6 -4 20 -28 31 -54 12
-26 23 -40 25 -32 3 7 -1 18 -8 23 -12 8 -11 9 1 6 8 -3 24 -21 35 -41 11 -20
26 -37 34 -37 11 0 10 5 -3 23 -41 56 -75 124 -81 159 -8 45 -10 47 -53 38z"/>
<path d="M2285 1416 c-38 -43 -38 -44 10 -29 25 9 43 19 40 23 -8 14 -40 17
-50 6z"/>
<path d="M1888 1403 c-2 -5 -1 -26 3 -48 3 -22 7 -30 8 -17 0 12 5 22 10 22
11 0 3 38 -10 45 -4 3 -9 2 -11 -2z"/>
<path d="M856 1393 c-3 -3 3 -18 13 -32 12 -17 17 -39 15 -61 -2 -19 -1 -27 2
-17 3 9 13 17 22 18 11 0 12 2 5 6 -7 2 -13 16 -13 29 0 13 -4 24 -10 24 -5 0
-7 6 -4 14 5 14 -19 29 -30 19z"/>
<path d="M2641 1295 c-18 -19 -39 -35 -47 -35 -8 0 -14 -4 -14 -9 0 -5 -9 -13
-21 -16 -12 -4 -30 -16 -40 -26 -10 -10 -27 -19 -36 -19 -10 0 -27 -7 -38 -16
-35 -26 45 -4 89 25 59 39 118 71 130 71 16 0 48 39 41 50 -11 18 -30 10 -64
-25z"/>
<path d="M534 1308 c-3 -5 -12 -7 -20 -4 -22 9 -16 -2 11 -20 20 -13 28 -14
40 -4 8 7 22 10 30 6 12 -4 13 -2 6 13 -11 19 -57 26 -67 9z"/>
<path d="M2505 1265 c-27 -13 -59 -27 -70 -31 -20 -7 -20 -7 0 -12 16 -4 79
21 95 38 3 3 16 11 30 17 14 6 18 12 10 12 -8 0 -37 -10 -65 -24z"/>
<path d="M706 1271 c-4 -7 1 -11 13 -11 30 0 51 -11 51 -26 0 -9 12 -14 35
-14 24 0 35 5 35 15 0 8 -9 15 -19 15 -11 0 -21 5 -23 11 -5 15 -84 24 -92 10z"/>
<path d="M335 1184 c17 -8 44 -28 60 -45 17 -16 38 -29 47 -29 9 0 36 -9 61
-19 24 -10 74 -24 111 -29 37 -6 73 -15 79 -21 11 -8 114 -15 191 -12 45 2 13
31 -34 31 -21 0 -41 6 -44 13 -5 10 -7 10 -12 0 -7 -16 -60 -17 -70 -2 -3 6
-16 8 -28 5 -11 -2 -39 2 -61 11 -22 8 -58 19 -80 23 -92 20 -135 32 -135 39
0 11 -75 51 -96 51 -14 0 -11 -5 11 -16z"/>
<path d="M80 1169 c0 -13 -7 -46 -15 -73 -8 -27 -12 -59 -9 -72 4 -15 2 -24
-6 -24 -6 0 -8 -5 -4 -11 5 -8 9 -8 14 1 4 7 13 9 19 6 14 -9 14 17 0 31 -12
12 -5 78 11 103 9 13 11 13 19 0 6 -8 12 -12 14 -10 2 3 -7 20 -20 39 -22 32
-23 32 -23 10z"/>
<path d="M1287 1183 c-2 -5 -7 -21 -11 -38 -12 -54 -63 -150 -98 -183 -25 -23
-22 -39 3 -16 47 42 95 134 113 217 6 25 2 36 -7 20z"/>
<path d="M1950 1172 c0 -6 6 -13 13 -16 6 -3 2 -3 -10 0 -13 3 -23 1 -23 -5 0
-6 11 -11 25 -11 28 0 32 12 10 30 -9 8 -15 8 -15 2z"/>
<path d="M1648 1144 c-3 -5 -6 -47 -6 -94 0 -55 3 -78 8 -65 6 14 9 2 9 -40 1
-42 -2 -56 -9 -45 -8 12 -10 9 -10 -12 0 -15 -5 -30 -11 -33 -6 -4 -9 -28 -8
-54 3 -35 0 -46 -11 -46 -10 0 -15 10 -15 27 1 14 -3 24 -7 22 -13 -8 -9 -36
7 -54 14 -16 10 -60 -6 -60 -14 0 -20 -63 -11 -105 l10 -40 2 45 c3 66 13 103
29 108 10 3 12 -1 8 -17 -3 -11 -2 -21 3 -21 4 0 7 -11 6 -25 -1 -18 -5 -24
-16 -20 -13 4 -13 4 0 -7 17 -14 24 -168 8 -168 -5 0 -6 -5 -3 -10 10 -17 25
-1 25 27 0 20 3 23 13 15 20 -17 22 142 3 207 -15 51 -14 139 2 211 4 19 4 60
0 90 -4 30 -5 72 -3 92 5 38 -7 89 -17 72z"/>
<path d="M2006 1138 c29 -51 83 -112 131 -151 32 -25 66 -53 76 -61 15 -14 17
-14 17 -1 0 8 -4 15 -10 15 -5 0 -7 7 -3 16 5 13 1 15 -18 10 -13 -3 -18 -3
-11 0 6 3 12 10 12 15 0 6 -6 9 -12 7 -20 -3 -136 101 -157 141 -7 11 -16 21
-22 21 -6 0 -7 -6 -3 -12z"/>
<path d="M202 1020 c7 -11 18 -20 25 -20 7 0 13 -7 13 -15 0 -8 5 -15 11 -15
12 0 4 16 -24 48 -25 27 -42 29 -25 2z"/>
<path d="M36 954 c-10 -27 -7 -44 9 -44 10 0 15 10 15 30 0 32 -14 40 -24 14z"/>
<path d="M280 922 c0 -4 11 -19 25 -34 14 -15 25 -31 25 -35 0 -5 12 -23 28
-40 90 -103 109 -131 126 -190 18 -66 16 -135 -4 -188 -6 -16 -11 -57 -9 -90
3 -89 1 -98 -26 -128 -14 -15 -22 -27 -18 -27 16 0 53 31 53 45 0 7 4 15 9 17
4 1 10 24 13 51 4 36 2 47 -8 47 -8 0 -14 10 -14 25 0 14 4 25 8 25 8 0 23 73
37 182 4 28 2 53 -4 60 -45 55 -57 75 -53 87 3 8 0 11 -6 7 -6 -3 -23 10 -39
31 -15 20 -40 49 -54 63 -14 14 -28 33 -32 43 -3 9 -10 17 -16 17 -5 0 -11 9
-14 20 -5 19 -27 29 -27 12z"/>
<path d="M2240 890 c0 -5 5 -12 10 -15 6 -3 7 -17 4 -31 -5 -20 -3 -23 11 -18
11 5 15 14 11 28 -3 11 -6 24 -6 27 0 11 -30 19 -30 9z"/>
<path d="M2184 848 c4 -23 11 -47 15 -53 5 -5 14 -26 20 -45 6 -20 25 -50 41
-68 17 -18 30 -37 30 -41 0 -9 97 -93 129 -112 14 -8 33 -21 42 -29 32 -27
141 -77 209 -95 3 -1 18 -7 33 -13 16 -7 38 -12 50 -11 13 1 2 7 -25 16 -27 8
-48 20 -48 26 0 7 -4 6 -10 -3 -5 -8 -10 -10 -10 -4 0 5 -16 16 -35 24 -19 8
-35 17 -35 22 0 4 -6 5 -14 2 -8 -3 -23 3 -33 13 -11 11 -24 18 -30 16 -6 -2
-17 2 -25 10 -7 8 -32 26 -55 40 -23 15 -47 36 -53 47 -6 11 -15 18 -19 16 -4
-3 -31 19 -59 49 -41 43 -57 71 -77 129 -14 41 -25 82 -25 90 0 9 -5 16 -11
16 -8 0 -9 -14 -5 -42z"/>
<path d="M1679 860 c-2 -14 -2 -50 1 -80 l5 -55 6 47 c7 54 -4 134 -12 88z"/>
<path d="M1 809 c-1 -33 1 -36 24 -31 27 5 29 10 16 30 -6 11 -10 10 -16 -5
-7 -15 -9 -14 -15 12 l-8 30 -1 -36z"/>
<path d="M1958 802 c-26 -9 -53 -23 -60 -29 -17 -18 3 -16 26 2 11 8 41 18 68
21 26 4 45 10 42 15 -7 12 -21 10 -76 -9z"/>
<path d="M97 793 c-17 -16 -4 -23 41 -22 34 0 41 3 27 8 -11 5 -23 7 -27 5 -4
-3 -9 0 -13 6 -7 12 -19 13 -28 3z"/>
<path d="M1923 759 c-16 -16 1 -39 28 -39 14 0 18 6 15 23 -3 25 -26 33 -43
16z"/>
<path d="M20 740 c14 -11 22 -20 17 -20 -4 0 2 -18 13 -39 11 -22 21 -53 22
-70 1 -17 7 -31 12 -31 5 0 7 -2 4 -5 -3 -3 4 -38 17 -78 12 -40 20 -78 18
-84 -3 -7 2 -16 11 -19 9 -3 16 -14 16 -24 0 -10 6 -36 14 -58 19 -52 2 -79
-55 -88 -21 -4 -39 -10 -39 -15 0 -5 -9 -9 -19 -9 -30 0 -51 -11 -51 -26 0
-20 21 -17 80 10 29 14 59 22 66 19 8 -3 14 0 14 6 0 6 7 11 16 11 11 0 14 6
9 23 -4 14 -3 17 3 9 6 -10 13 -8 27 7 14 17 16 30 11 73 -4 29 -7 59 -8 66
-1 6 -7 12 -15 12 -12 0 -18 13 -14 34 1 6 -2 19 -8 30 -5 12 -12 35 -16 51
-16 77 -22 102 -33 122 -7 12 -12 29 -12 39 0 29 -56 74 -92 74 l-33 0 25 -20z"/>
<path d="M920 753 c0 -5 -21 -17 -46 -27 -26 -10 -69 -34 -96 -52 -28 -19 -57
-34 -65 -34 -8 0 -11 -4 -8 -10 6 -10 13 -8 80 28 22 12 61 32 86 45 57 28 89
57 65 57 -9 0 -16 -3 -16 -7z"/>
<path d="M1840 750 c-8 -5 -23 -10 -32 -10 -9 0 -36 -12 -60 -26 l-43 -26 -2
-76 c-1 -82 -8 -158 -18 -207 -4 -23 -2 -20 10 10 19 49 26 101 27 180 1 89 7
99 87 130 39 16 71 30 71 32 0 7 -25 2 -40 -7z"/>
<path d="M282 469 c-24 -11 -42 -22 -40 -24 5 -5 94 28 104 38 14 14 -22 6
-64 -14z"/>
<path d="M2890 410 c0 -5 -7 -10 -15 -10 -8 0 -15 -4 -15 -9 0 -5 8 -8 18 -6
9 2 29 4 43 4 14 1 34 8 45 17 19 15 19 15 -1 6 -11 -5 -29 -6 -40 -1 -28 11
-35 11 -35 -1z"/>
<path d="M1666 338 c-7 -35 -17 -129 -16 -163 0 -16 -4 -36 -8 -43 -8 -12 -7
55 2 146 3 24 1 40 -5 37 -5 -3 -8 -16 -8 -28 1 -33 -28 -198 -39 -229 -6 -14
-16 -29 -21 -33 -16 -9 -13 -25 4 -25 18 0 64 71 80 125 7 22 15 84 18 138 5
94 2 121 -7 75z"/>
<path d="M2679 343 c-12 -14 -12 -16 1 -11 8 3 20 -2 27 -11 11 -15 12 -15 13
0 0 28 -25 42 -41 22z"/>
<path d="M2420 335 c0 -3 19 -17 42 -32 22 -16 53 -36 67 -45 49 -33 76 -46
111 -53 19 -4 40 -12 47 -17 13 -11 149 -15 159 -5 4 4 -13 8 -37 9 -24 0 -55
2 -69 3 -41 3 -162 45 -191 66 -15 10 -31 19 -36 19 -4 0 -23 14 -42 30 -31
28 -51 37 -51 25z"/>
<path d="M224 238 c-4 -6 -3 -9 2 -5 5 3 29 2 54 -3 48 -9 77 -2 44 11 -30 12
-92 10 -100 -3z"/>
<path d="M1522 208 c-7 -7 -12 -24 -12 -39 0 -15 -3 -29 -7 -32 -5 -2 -2 -2 5
-1 15 4 15 -1 0 -43 -7 -18 -18 -33 -26 -33 -11 0 -11 -3 2 -15 21 -21 26 -19
26 14 0 16 5 31 10 33 9 3 25 128 17 128 -2 0 -8 -5 -15 -12z"/>
<path d="M2146 133 c43 -97 45 -100 41 -73 -2 14 -11 40 -20 57 -10 18 -17 36
-16 40 0 4 -4 9 -11 11 -6 2 -4 -12 6 -35z"/>
</g>
</svg>
